<?xml version="1.0" encoding="utf-8"?>
<!-- Generator: Adobe Illustrator 16.0.4, SVG Export Plug-In . SVG Version: 6.00 Build 0)  -->
<!DOCTYPE svg PUBLIC "-//W3C//DTD SVG 1.1//EN" "http://www.w3.org/Graphics/SVG/1.1/DTD/svg11.dtd">
<svg version="1.1" id="Layer_1" xmlns="http://www.w3.org/2000/svg" xmlns:xlink="http://www.w3.org/1999/xlink" x="0px" y="0px"
	 width="500px" height="500px" viewBox="0 0 500 500" enable-background="new 0 0 500 500" xml:space="preserve">
<path fill="#CC8751" d="M470.189,231.282c-14.609,0-27.681-6.568-36.438-16.907c-10.296,8.315-23.39,13.301-37.652,13.301
	c-33.134,0-59.992-26.858-59.992-59.993c0-5.478,0.748-10.777,2.124-15.818c-1.039,0.054-2.085,0.082-3.137,0.082
	c-33.133,0-59.991-26.859-59.991-59.993c0-14.63,5.242-28.031,13.944-38.442c-2.55-5.842-3.973-12.289-3.973-19.07
	c0-11.453,4.036-21.96,10.758-30.187c-15.146-2.878-30.774-4.402-46.758-4.402C111.536-0.147,0.039,111.351,0.039,248.888
	c0,137.54,111.498,249.038,249.036,249.038s249.037-111.498,249.037-249.038c0-8.68-0.446-17.254-1.313-25.706
	C489.193,228.296,480.041,231.282,470.189,231.282z"/>
<g>
	<path fill="#B97950" d="M10.134,218.718c0-28.775,11.404-63.152,20.071-89.009c-19.459,35.504-30.531,76.258-30.531,119.6
		c0,137.64,111.579,249.218,249.218,249.218c72.507,0,137.772-30.974,183.314-80.4c-43.474,33.07-104.413,59.416-163.25,59.416
		C126.014,477.542,10.134,361.662,10.134,218.718z"/>
</g>
<g>
	<path fill="#482E00" d="M129.697,155.896c-21.512,0-38.95-17.438-38.95-38.95c0-5.222,1.035-10.199,2.899-14.75
		c-5.982,7.018-9.6,16.112-9.6,26.058c0,22.205,18,40.206,40.206,40.206c19.59,0,35.899-14.014,39.471-32.562
		C157.065,147.826,144.327,155.896,129.697,155.896z"/>
	<path fill="#5E4021" d="M129.697,155.896c14.629,0,27.368-8.071,34.026-19.998c0.476-2.476,0.734-5.029,0.734-7.644
		c0-22.205-18.001-40.206-40.206-40.206c-12.26,0-23.232,5.495-30.605,14.148c-1.865,4.55-2.899,9.527-2.899,14.75
		C90.748,138.458,108.186,155.896,129.697,155.896z"/>
</g>
<g>
	<path fill="#482E00" d="M40.63,258.086c-7.17,0-12.983-5.813-12.983-12.983c0-1.742,0.344-3.4,0.966-4.917
		c-1.994,2.339-3.2,5.371-3.2,8.686c0,7.4,6,13.401,13.402,13.401c6.53,0,11.966-4.671,13.157-10.854
		C49.753,255.396,45.506,258.086,40.63,258.086z"/>
	<path fill="#5E4021" d="M40.63,258.086c4.876,0,9.123-2.689,11.342-6.667c0.159-0.825,0.245-1.675,0.245-2.547
		c0-7.401-6-13.402-13.402-13.402c-4.086,0-7.744,1.833-10.202,4.716c-0.622,1.517-0.966,3.175-0.966,4.917
		C27.647,252.272,33.46,258.086,40.63,258.086z"/>
</g>
<g>
	<path fill="#482E00" d="M360.287,422.468c-12.548,0-22.721-10.172-22.721-22.72c0-3.046,0.603-5.948,1.69-8.604
		c-3.49,4.095-5.6,9.399-5.6,15.2c0,12.952,10.5,23.453,23.453,23.453c11.427,0,20.94-8.173,23.024-18.995
		C376.251,417.762,368.82,422.468,360.287,422.468z"/>
	<path fill="#5E4021" d="M360.287,422.468c8.533,0,15.964-4.706,19.848-11.666c0.278-1.442,0.429-2.932,0.429-4.458
		c0-12.952-10.5-23.453-23.453-23.453c-7.152,0-13.553,3.207-17.854,8.253c-1.088,2.656-1.69,5.559-1.69,8.604
		C337.566,412.296,347.739,422.468,360.287,422.468z"/>
</g>
<g>
	<path fill="#482E00" d="M195.323,445.261c-9.427,0-17.069-7.642-17.069-17.068c0-2.289,0.453-4.469,1.27-6.464
		c-2.622,3.076-4.207,7.063-4.207,11.42c0,9.73,7.887,17.618,17.619,17.618c8.585,0,15.732-6.141,17.298-14.27
		C207.316,441.725,201.734,445.261,195.323,445.261z"/>
	<path fill="#5E4021" d="M195.323,445.261c6.411,0,11.993-3.536,14.912-8.764c0.208-1.083,0.321-2.202,0.321-3.349
		c0-9.731-7.888-17.62-17.62-17.62c-5.373,0-10.181,2.408-13.413,6.2c-0.817,1.995-1.27,4.175-1.27,6.464
		C178.254,437.619,185.896,445.261,195.323,445.261z"/>
</g>
<g>
	<path fill="#482E00" d="M300.572,330.121c-21.513,0-38.948-17.439-38.948-38.949c0-5.221,1.03-10.198,2.896-14.747
		c-5.98,7.017-9.6,16.109-9.6,26.055c0,22.204,17.998,40.206,40.206,40.206c19.587,0,35.899-14.013,39.471-32.564
		C327.938,322.053,315.198,330.121,300.572,330.121z"/>
	<path fill="#5E4021" d="M300.572,330.121c14.626,0,27.365-8.068,34.025-20c0.478-2.476,0.734-5.025,0.734-7.642
		c0-22.203-17.999-40.206-40.205-40.206c-12.261,0-23.231,5.497-30.606,14.151c-1.866,4.549-2.896,9.526-2.896,14.747
		C261.624,312.682,279.06,330.121,300.572,330.121z"/>
</g>
<g>
	<path fill="#482E00" d="M447.714,310.019c-7.172,0-12.983-5.813-12.983-12.983c0-1.741,0.344-3.399,0.966-4.916
		c-1.995,2.339-3.2,5.371-3.2,8.686c0,7.4,6.001,13.401,13.401,13.401c6.531,0,11.966-4.671,13.157-10.854
		C456.836,307.328,452.589,310.019,447.714,310.019z"/>
	<path fill="#5E4021" d="M447.714,310.019c4.875,0,9.122-2.69,11.341-6.667c0.16-0.825,0.245-1.675,0.245-2.547
		c0-7.401-6.001-13.402-13.402-13.402c-4.087,0-7.745,1.833-10.201,4.717c-0.622,1.517-0.966,3.175-0.966,4.916
		C434.73,304.205,440.542,310.019,447.714,310.019z"/>
</g>
<g>
	<path fill="#482E00" d="M158.115,301.202c-14.65,0-26.526-11.878-26.526-26.526c0-3.557,0.704-6.945,1.974-10.045
		c-4.074,4.78-6.537,10.973-6.537,17.745c0,15.122,12.258,27.382,27.381,27.382c13.342,0,24.449-9.542,26.882-22.177
		C176.752,295.706,168.077,301.202,158.115,301.202z"/>
	<path fill="#5E4021" d="M158.115,301.202c9.962,0,18.638-5.496,23.174-13.621c0.324-1.686,0.5-3.423,0.5-5.205
		c0-15.12-12.259-27.381-27.382-27.381c-8.349,0-15.821,3.743-20.844,9.636c-1.27,3.1-1.974,6.488-1.974,10.045
		C131.589,289.324,143.465,301.202,158.115,301.202z"/>
</g>
<g>
	<path fill="#482E00" d="M231.045,211.799c-11.564,0-20.938-9.374-20.938-20.938c0-2.806,0.555-5.482,1.557-7.929
		c-3.216,3.775-5.16,8.662-5.16,14.008c0,11.937,9.676,21.614,21.614,21.614c10.531,0,19.297-7.531,21.218-17.507
		C245.756,207.46,238.908,211.799,231.045,211.799z"/>
	<path fill="#5E4021" d="M231.045,211.799c7.863,0,14.711-4.338,18.291-10.752c0.256-1.329,0.395-2.702,0.395-4.107
		c0-11.937-9.676-21.613-21.613-21.613c-6.59,0-12.489,2.955-16.454,7.605c-1.002,2.446-1.557,5.123-1.557,7.929
		C210.106,202.425,219.481,211.799,231.045,211.799z"/>
</g>
<g>
	<path fill="#482E00" d="M93.924,375.562c-12.548,0-22.72-10.172-22.72-22.721c0-3.046,0.603-5.948,1.69-8.603
		c-3.489,4.095-5.6,9.398-5.6,15.199c0,12.951,10.5,23.453,23.453,23.453c11.427,0,20.941-8.174,23.026-18.995
		C109.888,370.855,102.457,375.562,93.924,375.562z"/>
	<path fill="#5E4021" d="M93.924,375.562c8.533,0,15.964-4.706,19.85-11.666c0.277-1.443,0.428-2.932,0.428-4.458
		c0-12.952-10.5-23.454-23.454-23.454c-7.152,0-13.551,3.207-17.854,8.255c-1.087,2.654-1.69,5.557-1.69,8.603
		C71.204,365.39,81.376,375.562,93.924,375.562z"/>
</g>
</svg>
