<?xml version="1.0" encoding="utf-8"?>
<!-- Generator: Adobe Illustrator 16.0.4, SVG Export Plug-In . SVG Version: 6.00 Build 0)  -->
<!DOCTYPE svg PUBLIC "-//W3C//DTD SVG 1.1//EN" "http://www.w3.org/Graphics/SVG/1.1/DTD/svg11.dtd">
<svg version="1.1" id="Layer_1" xmlns="http://www.w3.org/2000/svg" xmlns:xlink="http://www.w3.org/1999/xlink" x="0px" y="0px"
	 width="500px" height="500px" viewBox="0 0 500 500" enable-background="new 0 0 500 500" xml:space="preserve">
<g>
	<path fill-rule="evenodd" clip-rule="evenodd" fill="#D2A066" d="M258.518,160.289c18.016,14.444,34.609,30.203,47.295,53.521
		c30.991-63.91,68.641-118.622,138.944-139.964c0.564,0,1.129,0,1.693,0c0.38,1.08,0.76,2.16,1.14,3.242
		c-1.366,3.68-4.884,4.542-7.948,5.738C389.056,102.573,361.32,141.258,336.667,188c-6.578,12.471-18.147,24.273-25.25,36.481
		c-5.167,8.882-11.77,18.512-21.417,22.353c-23.338,9.292-47.835,13.094-71.171,22.356c-10.51,4.174-20.937,8.553-27.574,18.619
		c-3.479,5.276-6.228,10.691-6.427,17.179c-0.078,2.504-0.237,5.139-2.614,6.839c-1.233-6.444-2.465-12.89-3.698-19.333
		c-1.632-6.886,1.878-12.389,5.086-17.827c3.249-5.508,7.741-10.101,12.098-14.757c4.41-3.984,9.12-7.623,14.173-10.703
		c4.91-2.994,6.696-7.114,6.708-12.683c0.02-9.309-0.612-18.65,0.51-27.921c0.666-5.501-2.783-6-6.693-6.277
		c-10.688-0.752-21.311-2.403-32.085-1.968c-3.896,0.157-7.967,0.422-11.391-2.229c-2.738-5.051,1.108-7.917,3.87-10.893
		c10.757-11.595,24.956-17.144,39.513-21.907c11.83-3.87,23.982-6.399,36.368-7.613C250.793,157.31,255.204,156.539,258.518,160.289
		z"/>
	<path fill-rule="evenodd" clip-rule="evenodd" fill="#F2ECB2" d="M182.213,311.826c-1.629-29.504,18.417-43.417,41.868-46.684
		c70.332-9.792,96.901-63.554,128.285-116.147c20.982-35.164,54.389-59.961,95.224-71.908c13.333,11.016,8.006,25.554,5.402,38.129
		c-12.073,58.318-32.301,111.698-92.501,137.991c-4.226,1.847-8.2,4.546-3.67,9.368c11.229,11.957,14.675,26.178,13.399,42.01
		c1.5,2.279,0.726,4.773,0.695,7.2c-0.106,3.337-1.229,6.443-2.172,9.593c-2.913,7.666-5.65,15.415-10.083,22.396
		c-2.166,3.023-2.381,6.957-4.601,9.957c-5.246,3.733-9.854,8.322-15.346,11.705c-3.24,1.996-6.364,4.89-10.759,3.171
		c-25.299,9.902-51.188,13.147-77.915,6.88c-8.684,3.672-15.31-1.212-22.121-5.323c-2.805-2.133-5.61-4.265-8.416-6.395
		c-7.125-4.464-12.094-11.517-19.26-15.975c-2.196-1.366-3.3-3.78-2.973-6.569C192.252,331.426,187.233,321.626,182.213,311.826z"/>
	<path fill-rule="evenodd" clip-rule="evenodd" fill="#EC7868" d="M258.518,160.289c-34.379,2.746-68.412,6.346-91.586,36.902
		c-2.276,9.595-6.473,17.695-8.932,27.267c-1.208,4.701-3.32,9.991-8.469,12.978c-3.179,0.68-5.652-0.458-7.616-2.933
		c-1.798-4.433-2.932-9.002-3.117-13.819c-1.133-29.525-1.936-58.961,12.367-86.319c2.826-5.405,5.26-10.665,12.395-10.901
		c47.392-33.096,108.122-30.434,137.147,6.566c-3.137,0.759-5.991,1.452-9.092,2.203c5.081,6.806,10.097,13.523,16.766,22.458
		c-6.736-0.622-10.426-0.963-15.351-1.417c3.042,4.041,5.494,7.299,7.955,10.567C286.252,162.607,272.384,161.448,258.518,160.289z"
		/>
	<path fill-rule="evenodd" clip-rule="evenodd" fill="#EF927E" d="M356.369,343.042c3.454-7.377,6.908-14.752,10.362-22.129
		c2.85-2.036,5.968-1.358,8.961-0.661c18.693,4.345,36.852,10.307,54.289,18.37c3.072,1.421,6.11,2.985,7.531,6.399
		c6.976,5.863,13.951,11.729,18.455,15.515c3.935,11.107-27.813,1.755-6.964,21.112c-18.147,13.314-34.455-3.098-51.68-4.731
		c-2.857,0.525-4.829-1.115-6.692-2.849c-9.473-8.817-19.289-17.192-30.13-24.325C358.181,348.215,355.812,346.464,356.369,343.042z
		"/>
	<path fill-rule="evenodd" clip-rule="evenodd" fill="#EF927E" d="M163.561,123.463c-28.329,33.037-22.796,72.231-20.162,110.897
		c-1.402,1.91-3.221,1.867-5.194,1.113c-15.734-32.476-23.504-65.531-7.131-100.284c0.843-1.79,1.816-3.486,1.988-5.5
		c13.33-19.884,28.541-37.684,51.078-47.234C177.212,96.26,170.387,109.86,163.561,123.463z"/>
	<path fill-rule="evenodd" clip-rule="evenodd" fill="#F2ECB2" d="M195.87,261.886c-5.785,10.202-11.57,20.403-17.354,30.607
		c-17.414-5.646-34.829-11.289-52.243-16.934c1.687-3.672,5.174-3.929,8.504-4.47c15.59-2.535,19.725-7.576,18.903-23.096
		c-0.104-1.967-0.373-3.93,0.165-5.881c2.842-5.644,9.002-7.091,13.482-10.687c0.865-0.4,1.76-0.683,2.689-0.883
		c5.319-1.699,10.624-3.46,16.174-4.214c4.476-0.61,8.255,0.892,8.525,5.716C195.272,241.979,196.994,251.886,195.87,261.886z"/>
	<path fill-rule="evenodd" clip-rule="evenodd" fill="#ECCE92" d="M356.369,343.042c13.652,11.291,27.303,22.583,40.954,33.875
		c6.641,26.118-2.933,39.765-27.353,38.989c-3.864-0.391-3.862-3.676-4.26-6.232c-2.63-16.872-5.941-33.546-12.753-49.338
		c-1.007-2.334-1.546-4.835,0.331-7.126C354.315,349.821,355.343,346.431,356.369,343.042z"/>
	<path fill-rule="evenodd" clip-rule="evenodd" fill="#EC7868" d="M133.062,129.69c-12.773,35.576-7.7,70.291,5.04,104.636
		c-2.718,5.159-7.197,5.271-12.086,4.232c-2.749-1.149-4.771-3.156-6.487-5.521c-2.365-3.554-5.719-6.379-7.681-10.248
		c-0.565-1.062-0.798-2.19-0.649-3.391c-17.951-25.893-3.4-50.054,3.437-78.713c1.475,7.116,2.115,10.208,3.125,15.089
		C123.464,146.053,128.263,137.871,133.062,129.69z"/>
	<path fill-rule="evenodd" clip-rule="evenodd" fill="#EF927E" d="M353.289,353.21c5.561,20.9,11.122,41.798,16.683,62.696
		c-0.001,2.388-0.001,4.778-0.001,7.99c-4.398-3.043-7.992-5.532-11.612-8.038c-2.979,4.77-5.656,9.057-8.333,13.344
		c-3.855-7.533-8.616-14.753-11.357-22.673c-4.288-12.393-7.211-25.259-10.713-37.924C336.4,363.475,344.845,358.343,353.289,353.21
		z"/>
	<path fill-rule="evenodd" clip-rule="evenodd" fill="#F2ECB2" d="M120.962,231.602c1.86,1.702,3.721,3.405,5.581,5.109
		c0.773,1.252,1.259,2.797,0.317,3.898c-7.219,8.45-11.648,18.617-17.424,27.95c-17.224-20.969-46.83-9.662-66.08-25.351
		c7.727-6.723,18.023-7.347,26.891-11.348C87.143,224.241,104.031,226.218,120.962,231.602z"/>
	<path fill-rule="evenodd" clip-rule="evenodd" fill="#ECCE92" d="M437.513,345.021c-23.594-8.035-47.187-16.07-70.78-24.106
		c0.718-3.436,1.437-6.871,2.155-10.307c3.167-3.043,7.215-3.058,11.1-2.76c16.212,1.238,32.425,2.489,48.628,3.837
		c3.599,0.3,7.295,1.063,9.503,4.571c2.629,2.978,5.259,5.955,8.299,9.398c-5.723,3.818-16.754,7.199-1.511,14.068
		C441.906,341.874,439.709,343.447,437.513,345.021z"/>
	<path fill-rule="evenodd" clip-rule="evenodd" fill="#EF927E" d="M438.118,316.257c-23.079-1.88-46.158-3.761-69.233-5.645
		c0.447-2.012,0.892-4.021,1.336-6.029c23.342-4.152,46.296-4.135,68.189,6.57c1.575,0.771,2.787,2.284,4.168,3.453
		C441.092,315.155,439.604,315.706,438.118,316.257z"/>
	<path fill-rule="evenodd" clip-rule="evenodd" fill="#D8BABE" d="M197.272,341.226c7.411,7.513,14.821,15.026,22.232,22.54
		c-9.074-5.805-16.878-6.322-22.525,4.799c-0.519,1.023-5.485,1.248-5.69,0.746c-2.188-5.376-4.357-10.863-5.505-16.53
		C183.953,343.748,192.829,344.511,197.272,341.226z"/>
	<path fill-rule="evenodd" clip-rule="evenodd" fill="#ECCE92" d="M120.962,231.602c-27.37-6.171-52.396,3.336-77.605,11.607
		c3.871-3.409,7.742-6.817,11.613-10.227c0.763-0.456,1.375-1.077,1.925-1.765c1.079-0.569,2.156-1.136,3.234-1.705
		c16.648-8.76,34.981-6.919,52.789-8.386C115.599,224.619,118.28,228.11,120.962,231.602z"/>
	<path fill-rule="evenodd" clip-rule="evenodd" fill="#D8BABE" d="M227.92,370.164c7.374,1.772,14.748,3.547,22.122,5.323
		c-2.751,7.842-6.929,12.274-16.6,11.484C216.561,385.592,229.195,375.871,227.92,370.164z"/>
	<path fill-rule="evenodd" clip-rule="evenodd" fill="#ECCE92" d="M112.917,221.127c-17.595,2.795-35.191,5.59-52.787,8.387
		c15.181-12.668,33.527-9.356,51.067-10.114C111.771,219.974,112.344,220.55,112.917,221.127z"/>
	<path fill-rule="evenodd" clip-rule="evenodd" fill="#D9D0AB" d="M56.895,231.218c-0.641,0.589-1.282,1.176-1.923,1.765
		C55.611,232.394,56.253,231.807,56.895,231.218z"/>
	<path fill-rule="evenodd" clip-rule="evenodd" fill="#D8BABE" d="M267.72,324.895c3.473-8.621-1.601-24.013,11.469-22.93
		c11.311,0.938,6.484,15.164,5.949,23.13c-1.083,16.128,8.504,40.592-7.146,46.035c-12.914,4.492-10.33-23.047-20.058-33.697
		c-6.273-6.867-15.376-19.044-7.473-25.709C259.02,304.506,260.175,321.773,267.72,324.895z"/>
	<path fill-rule="evenodd" clip-rule="evenodd" fill="#F2E6A3" d="M43.357,243.209c0,0,4.473,5.604,16.774,7.812
		s24.861,3.761,29.777,5.404s23.01,15.325,23.01,15.325l65.598,20.743l2.242-3.955c0,0-59.414-21.314-70.007-27.788
		c-9-5.5-19.75-12.606-31-13.053S43.357,243.209,43.357,243.209z"/>
	<path fill-rule="evenodd" clip-rule="evenodd" fill="#D8BABE" d="M109.437,268.56c5.701-10.617,11.402-21.235,17.105-31.852
		c3.854-0.791,7.707-1.583,11.56-2.378c1.766,0.01,3.531,0.023,5.297,0.033c2.156,0.811,4.312,1.623,6.467,2.435
		c3.09,0.18,4.315,2.299,5.087,4.889c8.603,26.67-8.455,31.613-28.68,33.874c-4.543,2.421-9.087,4.843-14.225,7.582
		C111.188,278.338,110.312,273.449,109.437,268.56z"/>
	<path fill-rule="evenodd" clip-rule="evenodd" fill="#5C524E" d="M154.953,241.686c-1.695-1.631-3.391-3.262-5.087-4.891
		c5.689-13.2,11.378-26.402,17.066-39.604c18.189,0.941,36.38,1.882,54.312,2.81c-5.25,23.025,7.704,52.208-25.375,61.883
		c-10.041-8.157,10.544-45.474-26.545-27.879C169.324,234.005,159.41,239.235,154.953,241.686z"/>
</g>
<path fill-rule="evenodd" clip-rule="evenodd" fill="#F2E6A3" d="M182.213,311.826c0,0,20.779,65.12,77.787,69.674
	c121.5,9.706,110.21-88.837,110.21-88.837s-2.268,64.129-88.193,80.929c-25.683,5.021-49.349-7.258-65.683-22.258
	S184.093,315.318,182.213,311.826z"/>
<path fill-rule="evenodd" clip-rule="evenodd" fill="#F2E6A3" d="M355.343,260.564c0,0,100.925-43.866,100.925-167.064
	c0-11.044-4.588-16.326-8.678-16.413c0,0,4.91,1.913,4.41,11.413s-9.574,68.31-55,117c-18.844,20.198-54,42.197-54,42.197
	L355.343,260.564z"/>
<circle fill-rule="evenodd" clip-rule="evenodd" cx="165.98" cy="226.2" r="5.073"/>
<circle fill-rule="evenodd" clip-rule="evenodd" fill="#FFFFFF" cx="164.5" cy="226.833" r="1.417"/>
</svg>
