<?xml version="1.0" encoding="utf-8"?>
<!-- Generator: Adobe Illustrator 16.0.4, SVG Export Plug-In . SVG Version: 6.00 Build 0)  -->
<!DOCTYPE svg PUBLIC "-//W3C//DTD SVG 1.1//EN" "http://www.w3.org/Graphics/SVG/1.1/DTD/svg11.dtd">
<svg version="1.1" id="Layer_1" xmlns="http://www.w3.org/2000/svg" xmlns:xlink="http://www.w3.org/1999/xlink" x="0px" y="0px"
	 width="500px" height="500px" viewBox="0 0 500 500" enable-background="new 0 0 500 500" xml:space="preserve">
<g>
	<path fill-rule="evenodd" clip-rule="evenodd" fill="#F2ECB2" d="M419.249,212.442c-3.535,14.721-14.799,22.183-27.003,28.764
		c-8.071,3.461-16.068,7.254-26.21,5.752c7.562,1.92,16.333-4.29,20.797,5.481c-3.903,6.234-7.809,12.465-11.714,18.699
		c-4.059,4.239-10.127,4.273-14.915,6.857c5.127-0.465,9.494-5.274,15.185-2.336c5.347,6.314,10.689,12.631,16.034,18.946
		c7.601,10.739,2.24,20.358-2.569,30.029c-1.21,2.038-2.99,3.64-4.336,5.578c-0.995,1.345-2.111,2.597-3.263,3.812
		c-6.188,5.834-11.545,12.714-19.763,16.068c-10.994,7.269-21.987,14.54-32.983,21.812c-1.458,1.258-3.728,0.805-5.034,2.381
		l0.112-0.063c-4.683,2.473-9.719,3.777-14.919,4.519c-7.45-0.327-11.271-6.021-15.717-10.742
		c-3.391-3.599-5.761-8.335-12.523-10.08c-11.069,5.548-22.118,12.862-31.767,22.308c-13.301,1.21-26.327,2.249-35.517-10.896
		c-3.336-4.772-9.233-7.04-14.697-9.228c-7.326-2.931-11.998-8.234-14.504-14.773c0.728-4.774,3.01-6.143,4.344-5.96
		c-7.872,2.999-18.24,4.315-28.772,4.338c-2.391-0.087-4.781-0.176-7.169-0.266c-2.208-2.26-5.99-1.791-6.808-2.979
		c-6.049-9.395-0.71-19.571-6.955-27.087c-0.238-0.691-0.396-1.4-0.473-2.128c0.031-3.771,4.99-4.903,4.753-9.459
		c-6.051-7.477-18.186-10.405-19.6-22.446c-0.81-6.338-5.306-12.378-1.521-19.08c19.857-12.788,42.227-19.349,64.586-25.897
		c2.59-0.76,5.422-0.538,8.436,1.435c5.121,5.295,3.621,12.597,3.877,19.438c0.278,7.388-0.092,14.785,0.296,22.18
		c0.263,5.02,1.819,9.127,6.779,11.241c8.937,3.631,16.844-0.023,24.491-3.876c7.307-3.679,13.866-8.788,21.177-12.436
		c25.054-12.492,43.405-30.682,54.112-57.164c5.805-14.348,13.652-28.865,25.724-38.702c26.984-21.994,58.256-32.298,93.516-27.907
		c9.182,0.531,18.203,1.912,26.909,4.984c7.193,28.113-15.313,37.017-32.094,49.627c-5.674,10.369-14.947,8.4-22.536,7.016
		C403.046,214.882,411.795,206.814,419.249,212.442z"/>
	<path fill-rule="evenodd" clip-rule="evenodd" fill="#D2A166" d="M424.31,148.525c-63.56,0.899-101.81,33.026-128.96,90.388
		c-15.027,31.746-50.437,50.513-89.156,53.609c-1.725-3.006-0.975-6.056,0.02-9.007c6.784-20.146,8.481-40.944,7.814-61.997
		c-0.284-8.952,1.489-17.663,2.598-26.133c-2.793-3.914-7.729-2.557-10.444-5.536c-2.359-3.955-0.469-7.037,2.773-8.736
		c12.321-6.46,24.999-12.146,38.783-14.794c1.922-0.369,3.812,0.345,5.199,1.924c0.839,18.326,12.341,26.487,30.768,30.833
		c34.537-48.389,82.653-63.643,140.538-51.341L424.31,148.525z"/>
	<path fill-rule="evenodd" clip-rule="evenodd" fill="#F2ECB2" d="M252.936,168.242c-15.61,6.556-31.218,13.112-46.827,19.668
		c0.015,3.762-3.165,4.192-5.583,4.771c-12.97,3.11-24.63,9.437-36.841,14.441c-21.074,8.643-38.451,21.42-50.188,41.255
		c-0.803,1.357-2.053,2.313-3.425,3.104c-2.475,0.937-4.855,0.814-7.12-0.629c-2.407-2.487-2.65-5.506-2.167-8.707
		c1.457-4.477,3.37-8.798,4.771-13.305c3.809-9.036,8.733-17.432,14.647-25.255c17.456-17.613,34.252-35.903,54.862-50.135
		c12.575-8.682,26.036-15.361,40.384-20.319c4.666-1.612,9.644-3.25,14.533-0.252c6.876-0.563,13.754-1.125,22.146-1.813
		c-3.151,3.987-5.657,7.16-8.244,10.431c10.182,5.011,19.651,9.667,30.036,14.777C265.881,160.859,259.408,164.552,252.936,168.242z
		"/>
	<path fill-rule="evenodd" clip-rule="evenodd" fill="#D2A166" d="M229.981,132.881c-45.722,9.661-76.412,41.503-107.453,72.823
		c-2.544,0.977-4.753,2.661-7.354,3.51c-0.734,0.238-1.53,0.21-4.023,0.043c-7.966-7.968-15.857-18.045-18.149-30.104
		c-1.944-10.231,4.767-21.304,12.5-25.995c12.193-7.392,20.165-18.055,29.226-27.923c9.326-10.162,19.83-14.643,33.394-11.292
		c4.266,1.055,1.754,11.674,10.143,7.212C196.52,120.581,214.566,120.931,229.981,132.881z"/>
	<path fill-rule="evenodd" clip-rule="evenodd" fill="#DDA166" d="M384.395,324.972c2.343-10.122,4.686-20.243,7.03-30.365
		c22.928-3.075,45.855-6.152,69.516-9.326c0.801,4.979,1.569,9.774,2.633,16.402c6.72-0.709,12.973-1.37,19.224-2.026
		c3.457,9.714-1.489,18.205-4.098,26.979c-1.084,3.653-4.402,5.635-7.96,6.143c-27.903,3.985-55.595,12.289-84.133,4.64
		c-3.132-0.839-7.451-0.48-7.117-5.735c0.605-0.709,1.212-1.421,1.816-2.133C383.415,328.754,383.017,326.263,384.395,324.972z"/>
	<path fill-rule="evenodd" clip-rule="evenodd" fill="#CE9D63" d="M178.264,121.155c-2.604,1.593-5.206,3.19-8.698,5.33
		c-0.417-3.482-0.758-6.327-1.116-9.187c-27.633-6.135-35.219,17.754-49.701,32.969c-3.805,1.364-8.499,3.043-12.161,4.356
		c-4,7.819-7.443,14.549-11.856,23.178c4.887,8.337,10.696,18.245,16.859,28.759c3.413-0.268,7.173-0.563,10.936-0.856
		c-4.759,8.284-9.521,16.568-14.283,24.852c-3.486,0.181-5.412-1.991-7.027-4.638c-3.396-12.038-8.504-23.277-15.665-33.583
		c-2.192-3.155-4.79-6.192-4.927-10.359c12.687-51.534,57.04-65.766,97.739-86.337C180.677,106.083,166.838,113.196,178.264,121.155
		z"/>
	<path fill-rule="evenodd" clip-rule="evenodd" fill="#F2ECB2" d="M126.762,313.207c-16.41-0.741-32.821-1.482-49.231-2.226
		c-5.708-3.819-13.698-3.881-16.793-10.308c-4.406-2.227-8.556-0.771-13.533-2.771c-6.491-5.898-13.464-13.218-20.922-20.009
		c-3.53-3.217-6.672-7.301-0.74-11.542c16.195-5.333,32.662-5.479,49.272-2.663c6.339,3.04,4.318,8.085,3.022,12.938
		c-1.466,5.478-4.444,10.772-1.84,17.412c10.48-1.071,19.611-9.248,30.799-6.532c4.806,2.079,9.001,6.299,14.689,3.116
		c4.866,6.889,12.906,8.225,17.766,14.373C135.816,309.508,130.098,309.629,126.762,313.207z"/>
	<path fill-rule="evenodd" clip-rule="evenodd" fill="#CE9D63" d="M379.489,331.683c32.898,10.269,64.753,1.142,97.899-4.128
		c1.908-9.838,3.658-18.871,5.408-27.898c-0.794,11.983-1.588,23.968-2.087,31.486c-9.405,6.198-14.242,9.385-19.076,12.572
		c-25.015,0.744-49.578,9.868-75.011,3.839c21.989,8.013,43.963,15.01,67.138,4.798c2.588-1.142,5.251-1.592,7.555,0.763
		c0,4.081,0,8.168,0,11.769c-36.566,10.31-68.632,0.586-99.821-14.787C367.491,343.957,373.49,337.818,379.489,331.683z"/>
	<path fill-rule="evenodd" clip-rule="evenodd" fill="#D8B9BE" d="M248.549,378.983c10.058-9.32,20.116-18.642,34.118-31.617
		c9.175,11.175,16.654,20.29,24.134,29.4c1.682,1.496,1.672,3.16,0.487,4.938c-10.354,8.49-20.706,16.979-31.796,26.073
		c-6.088-5.171-11.824-10.046-17.561-14.922C250.794,390.945,244.253,388.63,248.549,378.983z"/>
	<path fill-rule="evenodd" clip-rule="evenodd" fill="#EAE09C" d="M248.549,378.983c3.127,4.624,6.255,9.251,9.382,13.872
		c-7.312-0.324-14.623-0.649-21.937-0.975c-14.263,1.334-26.062-2.901-34.298-15.186c-14.061-10.993-28.122-21.991-42.183-32.987
		c13.988-3.016,27.978-6.033,41.968-9.047c0.4,2.027,0.802,4.06,1.204,6.091c-5.344,0.963-10.688,1.927-18.862,3.4
		c14.475,10.62,27.668,20.303,43.635,32.02C231.778,376.748,240.165,377.865,248.549,378.983z"/>
	<path fill-rule="evenodd" clip-rule="evenodd" fill="#DDA166" d="M461.315,353.114c-17.111,10.627-35.646,9.865-63.694,3.23
		c-1.778-0.598-5.979-3.419-30.775-11.726c43.266,0,65.562-0.904,94.788-0.904C461.528,346.847,461.423,349.981,461.315,353.114z"/>
	<path fill-rule="evenodd" clip-rule="evenodd" fill="#D2A166" d="M77.215,267.055c-17.761,0.837-35.521,1.675-53.283,2.512
		c-1.723,1.312-3.012,3.556-5.754,2.673c15.382-28.864,42.878-13.856,65.501-19.594c-0.119-0.646-0.514-2.778-0.909-4.913
		c1.191-1.468,2.75-1.594,4.454-1.234c1.62,0.597,2.956,1.589,4.09,2.884c1.095,1.377,1.762,2.926,1.868,4.702
		C90.489,261.639,85.879,266.842,77.215,267.055z"/>
	<path fill-rule="evenodd" clip-rule="evenodd" fill="#7B4D30" d="M82.771,247.73c-2.034-7.516-3.351-23.435-5.028-35.153
		c12.79,5.481,22.464,13.634,24.386,28.436c0.583,3,1.164,6.002,1.745,9.003c-3.281,5.059-10.037,3.992-10.833,3.157
		C93.04,253.174,83.119,249.014,82.771,247.73z"/>
	<path fill-rule="evenodd" clip-rule="evenodd" fill="#F2ECB2" d="M80.625,181.977c7.7,14.146,15.398,28.294,23.096,42.44
		c-3.787,2.789-6.43,0.158-9.039-2.028c-8.747-7.34-17.3-14.887-24.323-23.98c0.192-1.581,0.383-3.164,0.574-4.747
		c2.508-3.144-1.051-7.281,1.699-10.386C75.297,182.844,77.961,182.412,80.625,181.977z"/>
	<path fill-rule="evenodd" clip-rule="evenodd" fill="#EAE09C" d="M126.762,313.207c1.777-4.006,3.553-8.015,4.611-10.403
		c-4.913-2.704-14.199-7.822-23.483-12.938c5.311-5.031,9.798-11.732,18.805-9.227c8.418,7.216,16.837,14.437,27.019,23.167
		c-8.208,3.915-11.904,5.677-15.603,7.443C134.328,311.903,130.545,312.556,126.762,313.207z"/>
	<path fill-rule="evenodd" clip-rule="evenodd" fill="#D8B9BE" d="M201.697,376.695c11.439,5.068,22.879,10.134,34.307,15.192
		c1.296,8.273-2.778,16.482-10.195,13.993C212.999,401.582,204.341,390.904,201.697,376.695z"/>
	<path fill-rule="evenodd" clip-rule="evenodd" fill="#EAE09C" d="M70.358,198.409c11.118,8.67,22.237,17.338,33.36,26.008
		c1.51,2.039,3.017,4.077,4.524,6.125c-2.035,3.497-4.074,6.984-6.112,10.471c-8.13-9.479-16.259-18.956-24.388-28.436
		c-5.05-4.626-10.1-9.251-15.467-14.168C64.923,198.409,67.641,198.409,70.358,198.409z"/>
	<path fill-rule="evenodd" clip-rule="evenodd" fill="#EAE09C" d="M18.178,272.239c1.917-0.895,3.833-1.787,5.752-2.677
		c8.371,8.754,16.74,17.503,25.68,26.852c3.483,0.281,7.652,0.615,11.912,0.922c5.396,4.527,10.702,9.088,16.008,13.646
		C52.397,306.264,32.661,293.277,18.178,272.239z"/>
	<path fill-rule="evenodd" clip-rule="evenodd" fill="#EAE09C" d="M386.833,252.439c-10.693-2.101-21.393-4.201-45.384-8.913
		c26.014-1.189,38.398-1.757,50.79-2.322C390.441,244.952,388.639,248.694,386.833,252.439z"/>
	<path fill-rule="evenodd" clip-rule="evenodd" fill="#EAE09C" d="M419.249,212.442c-12.671,0-25.337,0-57.353,0
		c32.503-5.219,45.077-7.239,57.654-9.256C419.45,206.271,419.35,209.356,419.249,212.442z"/>
	<path fill-rule="evenodd" clip-rule="evenodd" fill="#EAE09C" d="M138.582,313.377c4.831,5.495,11.475,11.773,20.348,30.311
		c-8.488,0-13.261-0.245-18.37-0.245C139.862,332.831,139.221,323.103,138.582,313.377z"/>
	<path fill-rule="evenodd" clip-rule="evenodd" fill="#EAE09C" d="M375.389,275.66c-8.566,2.416-17.137,4.829-25.707,7.241
		c-0.535-1.978-1.071-3.958-1.606-5.939c9.015-1.94,18.029-3.883,27.044-5.823C375.21,272.646,375.3,274.154,375.389,275.66z"/>
	<path fill-rule="evenodd" clip-rule="evenodd" fill="#CE9D63" d="M424.31,148.525c0,0-0.068-0.794-0.068-0.792
		c9.136,1.942,18.271,3.884,27.405,5.826C442.533,151.88,433.421,150.201,424.31,148.525z"/>
	<path fill-rule="evenodd" clip-rule="evenodd" fill="#EAE09C" d="M72.632,183.276c1.34,2.625,2.681,5.25,4.484,8.778
		c-2.322,0.604-4.256,1.107-6.186,1.611c-3.147-2.466-6.297-4.928-13.278-10.389C66.414,183.276,69.523,183.276,72.632,183.276z"/>
	<path fill-rule="evenodd" clip-rule="evenodd" fill="#EAE09C" d="M307.288,381.704c-0.16-1.647-0.323-3.295-0.485-4.939
		c5.594-0.847,11.188-1.693,16.784-2.542C318.153,376.717,312.722,379.21,307.288,381.704z"/>
	<path fill-rule="evenodd" clip-rule="evenodd" fill="#EAE09C" d="M323.475,374.286c1.678-0.794,3.354-1.59,5.031-2.381
		C326.832,372.696,325.152,373.492,323.475,374.286z"/>
	<path fill-rule="evenodd" clip-rule="evenodd" fill="#784B2A" d="M110.779,250.032c17.417-42.742,58.37-49.365,95.329-62.122
		c5.703,0,11.404,0,17.733,0c-12.408,34.263,0.914,72.042-17.645,104.609c-26.054-13.693-3.226-37.42-14.352-57.487
		c-21.976,8.531-45.812,17.784-69.646,27.037C114.046,262.179,112.18,256.326,110.779,250.032z"/>
	<path fill-rule="evenodd" clip-rule="evenodd" fill="#D6B5BB" d="M110.779,250.032c3.806,4.011,7.611,8.023,11.418,12.037
		c1.501,6.187,3,12.375,4.498,18.566c-6.268,3.075-12.535,6.152-18.805,9.229c-11.648,3.244-23.297,6.489-38.788,10.802
		c2.819-11.678,5.468-22.648,8.115-33.617c4.647-4.669,9.297-9.346,13.94-14.021c4.235-1.004,8.474-2.006,12.714-3.011
		C106.176,250.021,108.477,250.025,110.779,250.032z"/>
	<path fill-rule="evenodd" clip-rule="evenodd" fill="#CE9D63" d="M384.395,324.972c-1.027,1.526-2.053,3.053-3.084,4.578
		C382.335,328.024,383.364,326.498,384.395,324.972z"/>
</g>
<circle fill-rule="evenodd" clip-rule="evenodd" cx="139.251" cy="240.215" r="8.449"/>
<circle fill-rule="evenodd" clip-rule="evenodd" cx="90.808" cy="243.605" r="5.55"/>
<circle fill-rule="evenodd" clip-rule="evenodd" fill="#FFFFFF" cx="136.97" cy="241.204" r="2.636"/>
<circle fill-rule="evenodd" clip-rule="evenodd" fill="#FFFFFF" cx="89.2" cy="243.839" r="1.608"/>
</svg>
