<?xml version="1.0" encoding="utf-8"?>
<!-- Generator: Adobe Illustrator 16.0.4, SVG Export Plug-In . SVG Version: 6.00 Build 0)  -->
<!DOCTYPE svg PUBLIC "-//W3C//DTD SVG 1.1//EN" "http://www.w3.org/Graphics/SVG/1.1/DTD/svg11.dtd">
<svg version="1.1" id="Layer_1" xmlns="http://www.w3.org/2000/svg" xmlns:xlink="http://www.w3.org/1999/xlink" x="0px" y="0px"
	 width="500px" height="500px" viewBox="0 0 500 500" enable-background="new 0 0 500 500" xml:space="preserve">
<path d="M420.12,407.521l-31.638-7.215L207.038,198.293c0,0-2.962-3.488-4.856-2.699c-3.438,1.433-1.541,5.166-0.504,6.203
	L371,410.656v32.948l40.454,55.846l13.784-40.38l38.68-1.289L420.12,407.521z"/>
<path d="M302.215,337.988c-27.539,19.82-61.3,31.511-97.743,31.511c-92.472,0-167.703-75.23-167.703-167.702
	c0-92.472,75.231-167.703,167.703-167.703s167.703,75.231,167.703,167.703c0,45.157-17.947,86.195-47.074,116.376l22.774,25.841
	c36.242-36.54,58.666-86.809,58.666-142.217c0-111.422-90.648-202.069-202.069-202.069C93.05-0.272,2.402,90.375,2.402,201.797
	c0,111.42,90.647,202.069,202.069,202.069c44.704,0,86.057-14.603,119.561-39.273L302.215,337.988z"/>
<path d="M250.673,275.137c-13.387,8.465-29.227,13.386-46.201,13.386c-47.821,0-86.725-38.906-86.725-86.726
	c0-47.82,38.904-86.725,86.725-86.725c47.821,0,86.725,38.905,86.725,86.725c0,20.987-7.496,40.253-19.947,55.271l22.912,25.997
	c19.502-21.503,31.4-50.021,31.4-81.269c0-66.771-54.32-121.091-121.09-121.091c-66.77,0-121.092,54.321-121.092,121.091
	s54.322,121.092,121.092,121.092c25.24,0,48.692-7.771,68.111-21.032L250.673,275.137z"/>
<path d="M195.308,207.624c-3.398-4.143-6.153-9.16,1.291-16.608c9.305-9.31,20.475,4.578,20.475,4.578l21.556,24.461
	c2.916-5.44,4.571-11.656,4.571-18.258c0-21.391-17.337-38.73-38.728-38.73c-21.391,0-38.732,17.339-38.732,38.73
	c0,21.389,17.341,38.729,38.732,38.729c5.417,0,10.574-1.116,15.256-3.124L195.308,207.624z"/>
</svg>
